<?xml version="1.0" standalone="no"?>
<!DOCTYPE svg PUBLIC "-//W3C//DTD SVG 1.1//EN" "http://www.w3.org/Graphics/SVG/1.1/DTD/svg11.dtd" >
<svg xmlns="http://www.w3.org/2000/svg">
<metadata></metadata>
<defs>
<font id="adamregular" horiz-adv-x="978" >
<font-face units-per-em="2048" ascent="1638" descent="-410" />
<missing-glyph horiz-adv-x="1024" />
<glyph horiz-adv-x="2048" />
<glyph horiz-adv-x="2048" />
<glyph unicode="&#xd;" horiz-adv-x="1024" />
<glyph unicode=" "  horiz-adv-x="1024" />
<glyph unicode="&#x09;" horiz-adv-x="1024" />
<glyph unicode="&#xa0;" horiz-adv-x="1024" />
<glyph unicode="!" horiz-adv-x="593" d="M209 0v174h178v-174h-178zM209 362v941h178v-941h-178z" />
<glyph unicode="&#x22;" horiz-adv-x="718" d="M100 1362h183l-37 -508h-109zM434 1362h187l-39 -508h-109z" />
<glyph unicode="#" horiz-adv-x="1304" d="M168 319v132h235v241h-235v131h235v232h129v-232h242v232h131v-232h232v-131h-232v-241h232v-132h-232v-231h-131v231h-242v-231h-129v231h-235zM532 451h242v241h-242v-241z" />
<glyph unicode="$" d="M92 74v170h6q147 -111 357 -127v391q-356 80 -357 311q0 145 109 232q96 74 248 90v239h90v-237q170 -6 309 -66v-166h-6q-147 100 -303 117v-393q166 -35 241 -86q111 -74 111 -217q0 -139 -111 -232q-96 -82 -241 -100v-315h-90v313q-207 2 -363 76zM252 842 q0 -152 203 -197v381q-203 -16 -203 -184zM545 119q196 20 196 190q0 150 -196 187v-377z" />
<glyph unicode="%" horiz-adv-x="1751" d="M90 940q0 389 305 389t305 -389q0 -379 -305 -379t-305 379zM233 940q0 -274 162 -274q160 0 160 274q0 283 -160 283q-162 0 -162 -283zM469 0l680 1303h135l-684 -1303h-131zM1049 360q0 383 307 383q303 0 303 -383q0 -387 -303 -387q-307 0 -307 387zM1196 360 q0 -279 160 -278q160 -1 160 278q0 276 -160 277q-160 0 -160 -277z" />
<glyph unicode="&#x26;" horiz-adv-x="1208" d="M57 358q0 274 252 381q-184 88 -184 279q0 139 104 227q98 86 240 86q135 0 230.5 -84t95.5 -217q0 -111 -74 -190.5t-184 -98.5l323 -335q20 125 21 387h161v-80q0 -213 -96 -398l314 -315h-213l-185 193q-125 -221 -397 -222q-182 0 -295 103.5t-113 283.5zM227 399 q0 -133 75 -214t208 -81q195 0 283 158l-410 420q-156 -90 -156 -283zM285 1010q0 -82 50 -143.5t130 -75.5q78 18 125 78.5t47 140.5q0 82 -45 147q-49 74 -129 74q-82 0 -133 -72q-45 -63 -45 -149z" />
<glyph unicode="'" horiz-adv-x="378" d="M92 1362h195l-39 -508h-117z" />
<glyph unicode="(" horiz-adv-x="686" d="M94 541q0 479 332 860h197v-2q-184 -160 -282.5 -385.5t-98.5 -472.5q0 -250 96 -471q101 -229 285 -389h-197q-332 389 -332 860z" />
<glyph unicode=")" horiz-adv-x="686" d="M63 -319q186 160 285 387q96 221 96 473q0 244 -100 470t-281 388v2h197q330 -387 330 -860q0 -477 -330 -860h-197z" />
<glyph unicode="*" d="M100 772l318 184l-318 187l52 84l294 -195l-6 330h101l-9 -330l297 195l50 -86l-318 -185l320 -184l-52 -88l-297 197l9 -330h-101l6 330l-294 -197z" />
<glyph unicode="+" horiz-adv-x="1304" d="M137 506v129h449v448h133v-448h446v-129h-446v-449h-133v449h-449z" />
<glyph unicode="," horiz-adv-x="544" d="M66 -324l157 574h211l-248 -574h-120z" />
<glyph unicode="-" horiz-adv-x="1304" d="M137 502v137h1028v-137h-1028z" />
<glyph unicode="." horiz-adv-x="544" d="M166 0v250h209v-250h-209z" />
<glyph unicode="/" horiz-adv-x="684" d="M-20 -283l514 1645h141l-514 -1645h-141z" />
<glyph unicode="0" d="M72 651q0 680 417 680q416 0 416 -680t-416 -680q-418 0 -417 680zM240 575q0 -469 249 -469q164 0 220 207q30 113 30 338q0 223 -30 338q-55 207 -220 207q-250 0 -249 -469v-152z" />
<glyph unicode="1" d="M197 1018v106q123 0 184 31q84 41 92 152h129v-1307h-162v1018h-243z" />
<glyph unicode="2" d="M94 0v176q270 252 363 359q219 254 219 428q0 109 -62.5 169t-171.5 60q-156 0 -315 -115h-4v174q158 80 334 80t282.5 -92t106.5 -266q0 -203 -221 -461q-94 -111 -383 -375h657v-137h-805z" />
<glyph unicode="3" d="M84 51v176h4q160 -115 340 -114q133 0 207 76.5t74 209.5q0 150 -111 205q-74 37 -242 37v133q324 0 324 230q0 188 -234 188q-150 0 -321 -117h-4v174q152 82 340 82q166 0 268 -69q121 -82 121 -240q0 -109 -68.5 -188.5t-175.5 -102.5v-24q271 -48 271 -322 q0 -193 -121 -303.5t-316 -110.5q-197 0 -356 80z" />
<glyph unicode="4" d="M37 453v178l586 672h155v-721h158v-129h-158v-453h-162v453h-579zM156 582h460v536z" />
<glyph unicode="5" d="M111 45v176h2q152 -109 338 -108q133 0 202 86q66 80 66 215q0 256 -301 256q-115 0 -256 -31v664h715v-142h-553v-364q66 8 122 8q439 0 439 -393q0 -203 -117 -322t-319 -119q-190 0 -338 74z" />
<glyph unicode="6" d="M74 571q0 328 127 525q150 233 461 233q82 0 143 -20v-156q-74 37 -170 37q-354 0 -391 -459q137 96 282 96q188 0 291 -108.5t103 -296.5q0 -195 -109 -320q-113 -131 -305 -131q-231 0 -342 195q-90 158 -90 405zM240 532q0 -170 49 -278q68 -150 217 -150 q125 0 190 97q58 82 58 213q0 281 -269 280q-121 0 -241 -73q-4 -43 -4 -89z" />
<glyph unicode="7" d="M86 1161v142h829v-189l-571 -1114h-176l604 1161h-686z" />
<glyph unicode="8" d="M63 360q0 227 226 330v15q-193 111 -193 286q0 160 119 254q111 88 274 88q170 0 275 -78q117 -86 117 -249q0 -96 -56.5 -179.5t-146.5 -130.5v-12q237 -105 237 -322q0 -182 -119.5 -287.5t-306.5 -105.5q-188 0 -303 101q-123 106 -123 290zM229 371q0 -119 73 -201 t190 -82q115 0 184 70.5t69 185.5q0 119 -127 205q-51 35 -229 110q-160 -102 -160 -288zM260 1014q0 -178 322 -281q137 103 137 271q0 100 -64.5 156.5t-167.5 56.5q-96 0 -159 -52q-68 -57 -68 -151z" />
<glyph unicode="9" d="M57 881q0 195 112 322.5t304 127.5q231 0 342 -194q88 -156 88 -406q0 -326 -127 -522q-152 -236 -459 -236q-78 0 -143 19v155q76 -33 166 -32q367 0 395 458q-145 -98 -284 -98q-184 0 -289 109.5t-105 296.5zM227 889q0 -283 265 -283q131 0 243 74q4 49 4 88 q0 430 -268 430q-244 0 -244 -309z" />
<glyph unicode=":" horiz-adv-x="634" d="M215 0v242h207v-242h-207zM215 737v240h207v-240h-207z" />
<glyph unicode=";" horiz-adv-x="634" d="M111 -324l155 566h211l-248 -566h-118zM219 739v238h201v-238h-201z" />
<glyph unicode="&#x3c;" horiz-adv-x="1304" d="M174 522v99l944 446v-143l-749 -355l749 -352v-143z" />
<glyph unicode="=" horiz-adv-x="1304" d="M168 317v134h969v-134h-969zM168 692v133h969v-133h-969z" />
<glyph unicode="&#x3e;" horiz-adv-x="1304" d="M188 74v143l748 352l-748 355v143l938 -446v-99z" />
<glyph unicode="?" horiz-adv-x="851" d="M94 1100v172q154 59 318 59q166 0 270 -82q115 -88 115 -250q0 -147 -107 -266q-74 -82 -233 -182v-197h-150v258q150 88 213 148q111 104 111 225q0 207 -234 207q-160 0 -299 -92h-4zM301 0v174h168v-174h-168z" />
<glyph unicode="@" horiz-adv-x="1630" d="M115 567q0 328 196 541q201 221 527 221q334 0 514 -211q170 -196 170 -536q0 -248 -127 -445h-351l-20 170q-94 -111 -229 -110q-139 0 -224 100q-80 94 -79 238q0 485 329 485q143 0 324 -127v-666h201q68 131 67 348q0 291 -139 461q-152 184 -436 185 q-279 0 -447 -191q-162 -182 -162 -465q0 -297 152 -473q160 -186 453 -186q158 0 290 39v-113q-131 -29 -290 -29q-344 0 -535 213q-184 203 -184 551zM616 604q0 -297 222 -297q82 0 186 94v459q-90 47 -180 47q-119 0 -178 -96q-49 -80 -50 -207z" />
<glyph unicode="A" horiz-adv-x="1075" d="M2 0l440 1303h193l438 -1303h-170l-119 367h-497l-119 -367h-166zM332 506h407l-207 643z" />
<glyph unicode="B" horiz-adv-x="1054" d="M135 0v1303h359q203 0 307 -46q154 -66 153 -243q0 -193 -186 -279v-16q250 -64 250 -320q0 -209 -158 -311q-135 -88 -354 -88h-371zM295 137h162q389 0 389 254q0 143 -103 201q-76 43 -231 43h-217v-498zM295 770h215q270 0 270 217q0 180 -276 180h-209v-397z" />
<glyph unicode="C" horiz-adv-x="1077" d="M55 651q0 295 144 477q160 199 446 199q205 0 402 -110v-199h-9q-184 174 -395 174t-321 -172q-94 -145 -95 -369q0 -219 97 -364q113 -172 319 -172q225 0 397 172h7v-199q-229 -113 -404 -113q-293 0 -446 197q-141 178 -142 479z" />
<glyph unicode="D" horiz-adv-x="1214" d="M135 0v1303h291q733 -1 733 -652t-729 -651h-295zM295 137h141q551 0 551 514t-551 514h-141v-1028z" />
<glyph unicode="E" horiz-adv-x="1005" d="M135 0v1303h811v-144h-651v-371h608v-143h-608v-502h651v-143h-811z" />
<glyph unicode="F" horiz-adv-x="935" d="M135 0v1303h778v-144h-618v-383h592v-141h-592v-635h-160z" />
<glyph unicode="G" horiz-adv-x="1196" d="M55 653q0 303 160 484q166 190 465 190q203 0 426 -113v-198h-8q-195 174 -439 174q-215 0 -331 -164q-100 -145 -101 -369q0 -233 103 -378q117 -166 342 -166q164 0 276 47v350h-303v141h467v-565q-250 -113 -434 -113q-309 0 -471 189q-152 176 -152 491z" />
<glyph unicode="H" horiz-adv-x="1208" d="M135 0v1303h160v-515h620v515h164v-1303h-164v645h-620v-645h-160z" />
<glyph unicode="I" horiz-adv-x="669" d="M80 0v123h172v1059h-172v121h508v-121h-172v-1059h172v-123h-508z" />
<glyph unicode="J" horiz-adv-x="749" d="M8 8v154h4q35 0 101.5 -20.5t101.5 -20.5q145 0 199 69q43 59 43 211v775h-281v127h449v-965q0 -174 -105.5 -265t-283.5 -91q-113 0 -228 26z" />
<glyph unicode="K" horiz-adv-x="1052" d="M135 0v1303h160v-615l549 615h198l-542 -582l577 -721h-217l-481 614l-84 -92v-522h-160z" />
<glyph unicode="L" horiz-adv-x="892" d="M135 0v1303h160v-1160h592v-143h-752z" />
<glyph unicode="M" horiz-adv-x="1382" d="M135 0v1303h227l330 -742l324 742h233v-1303h-162v1151l-354 -789h-98l-350 789v-1151h-150z" />
<glyph unicode="N" horiz-adv-x="1196" d="M135 0v1303h238l538 -1061v1061h152v-1303h-186l-592 1151v-1151h-150z" />
<glyph unicode="O" horiz-adv-x="1269" d="M55 651q0 299 138 479q152 201 442 201q291 0 440 -201q133 -178 133 -479t-133 -479q-150 -201 -440 -201q-295 0 -445 199q-135 178 -135 481zM227 651q0 -231 86 -370q104 -170 322 -170q215 0 319 172q86 139 86 368t-86 371q-104 172 -319 172t-320 -172 q-88 -143 -88 -371z" />
<glyph unicode="P" horiz-adv-x="987" d="M135 0v1303h324q217 0 344 -84q151 -99 151 -306q0 -201 -131 -313q-122 -108 -323 -108h-4h-201v-492h-160zM295 629h127h3q357 0 357 278q0 258 -336 258h-151v-536z" />
<glyph unicode="Q" horiz-adv-x="1269" d="M55 651q0 299 138 479q152 201 442 201q291 0 440 -201q133 -178 133 -479q0 -354 -190 -540l145 -222h-159l-95 146q-123 -61 -274 -62q-291 0 -442 199q-137 178 -138 479zM227 651q0 -229 86 -368q104 -170 322 -170q104 0 190 43l-116 178h153l62 -90 q116 155 116 407q0 229 -86 371q-104 172 -319 172q-217 0 -322 -172q-86 -141 -86 -371z" />
<glyph unicode="R" horiz-adv-x="1114" d="M135 0v1303h332q479 0 479 -353q0 -285 -280 -381l469 -569h-211l-420 522h-209v-522h-160zM295 657h162q317 0 317 283q0 225 -297 225h-182v-508z" />
<glyph unicode="S" horiz-adv-x="999" d="M68 76v211h4q182 -172 413 -172q125 0 203 49q94 59 94 178q0 147 -182 213q-82 29 -342 113q-182 90 -182 286q0 176 135 279q123 94 305 94q213 0 387 -84v-196h-4q-160 143 -373 143q-113 0 -188 -51q-90 -59 -90 -166q0 -158 182 -215q68 -20 340 -101 q182 -81 182 -288q0 -193 -137 -297q-125 -96 -321 -97q-219 0 -426 101z" />
<glyph unicode="T" horiz-adv-x="1046" d="M0 1159v144h1047v-144h-443v-1159h-162v1159h-442z" />
<glyph unicode="U" horiz-adv-x="1175" d="M117 489v814h164v-814q0 -380 305 -380h2q307 0 307 376v818h164v-814q0 -518 -471 -518t-471 518z" />
<glyph unicode="V" horiz-adv-x="1069" d="M-6 1303h178l369 -1102l366 1102h168l-448 -1303h-181z" />
<glyph unicode="W" horiz-adv-x="1617" d="M25 1303h165l273 -1110l266 1110h166l270 -1123l269 1123h159l-325 -1303h-189l-272 1112l-266 -1112h-183z" />
<glyph unicode="X" horiz-adv-x="1042" d="M14 0l414 651l-403 652h188l315 -523l324 523h174l-405 -641l407 -662h-186l-324 532l-330 -532h-174z" />
<glyph unicode="Y" horiz-adv-x="1032" d="M-4 1303h180l344 -586l346 586h172l-440 -723v-580h-164v561z" />
<glyph unicode="Z" horiz-adv-x="1001" d="M51 0v154l711 1005h-678v144h860v-150l-719 -1010h736v-143h-910z" />
<glyph unicode="[" horiz-adv-x="686" d="M145 -322v1704h455v-114h-307v-1479h307v-111h-455z" />
<glyph unicode="\" horiz-adv-x="684" d="M45 1362h145l512 -1645h-139z" />
<glyph unicode="]" horiz-adv-x="686" d="M86 -211h309v1479h-309v114h457v-1704h-457v111z" />
<glyph unicode="^" horiz-adv-x="1304" d="M123 596l475 707h109l475 -705h-160l-373 559l-366 -561h-160z" />
<glyph unicode="_" d="M-14 -150h1007v-110h-1007v110z" />
<glyph unicode="`" d="M223 1466h205l154 -325h-121z" />
<glyph unicode="a" horiz-adv-x="991" d="M49 492q0 131 14 192q37 160 161 254t290 94q143 0 356 -158v-874h-153v164q-117 -168 -287 -168q-203 0 -299 154q-82 129 -82 342zM211 510q0 -150 59 -248q72 -121 211 -121q156 1 236 144v546q-88 63 -193 64q-152 0 -237 -121q-76 -106 -76 -264z" />
<glyph unicode="b" horiz-adv-x="991" d="M119 129v1233h153v-500q154 141 289 142q203 0 299 -156q80 -127 80 -342q0 -242 -111 -383q-121 -154 -356 -154q-143 0 -354 160zM272 170q88 -63 193 -64q147 0 235 123q78 109 78 263q0 156 -57 249q-70 117 -215 117q-98 0 -234 -117v-571z" />
<glyph unicode="c" horiz-adv-x="827" d="M51 487q0 231 111 367q119 147 344 147q145 0 289 -75v-176q-138 118 -287 118h-2q-150 0 -227 -120q-66 -102 -66 -261q0 -160 66 -260q75 -118 224 -118h3q160 0 289 122v-178q-162 -76 -289 -76q-225 0 -344 146q-111 135 -111 364z" />
<glyph unicode="d" horiz-adv-x="991" d="M51 565q0 184 96 305q104 133 283 134q135 0 289 -142v500h153v-1233q-215 -160 -356 -160q-166 0 -290 92.5t-160 251.5q-14 61 -15 252zM213 492q0 -154 78 -263q88 -123 235 -123q105 1 193 64v571q-135 117 -236 117q-139 0 -211 -119q-59 -98 -59 -247z" />
<glyph unicode="e" horiz-adv-x="942" d="M51 485q0 227 111 367q121 154 342 154q188 0 297.5 -111t109.5 -299q0 -59 -14 -119h-686q0 -166 82 -264q86 -104 250 -104q219 0 331 122h3v-174q-127 -82 -332 -82q-240 0 -367 134.5t-127 375.5zM211 590h537q-6 291 -254 291q-129 0 -203 -80t-80 -211z" />
<glyph unicode="f" horiz-adv-x="569" d="M27 782v127h108q0 184 84 314q95 151 268 151h2q53 0 146 -18v-142h-2q-23 0 -64 12.5t-63 12.5q-215 0 -215 -330h276v-127h-276v-782h-156v782h-108z" />
<glyph unicode="g" horiz-adv-x="991" d="M49 436q0 248 80 398q103 196 328 196h2q197 0 411 -156v-763q0 -453 -438 -453q-145 0 -287 43v162h5q158 -68 292 -68q172 0 232 94q45 72 45 254q-137 -145 -291 -145q-178 0 -283 133q-96 121 -96 305zM211 510q0 -150 59 -248q72 -119 211 -119q101 0 236 117v571 q-86 61 -228 62q-137 0 -213 -129q-66 -109 -65 -254z" />
<glyph unicode="h" horiz-adv-x="1001" d="M119 0v1362h153v-465q176 102 310 102q156 0 233 -108q70 -96 70 -256v-635h-152v555q0 143 -28 205q-45 96 -168 96q-127 0 -265 -121v-735h-153z" />
<glyph unicode="i" horiz-adv-x="409" d="M113 1153v158h186v-158h-186zM123 0v973h164v-973h-164z" />
<glyph unicode="j" horiz-adv-x="505" d="M-78 -195h2q14 0 45 -5t45 -5q127 0 174 70q39 57 39 190v793h-178v127h336v-977q0 -162 -88 -251t-250 -89q-59 0 -125 12v135zM205 1153v158h182v-158h-182z" />
<glyph unicode="k" horiz-adv-x="892" d="M119 0v1362h153v-813l402 424h190l-399 -406l461 -567h-207l-373 479l-74 -71v-408h-153z" />
<glyph unicode="l" horiz-adv-x="409" d="M123 0v1362h164v-1362h-164z" />
<glyph unicode="m" horiz-adv-x="1505" d="M119 0v776q260 227 430 228q178 0 256 -146q139 147 305 148q283 0 283 -361v-645h-154v602q0 256 -174 256q-119 0 -225 -92q12 -63 12 -131v-635h-154v557q0 139 -28 203q-45 98 -166 98q-94 0 -232 -123v-735h-153z" />
<glyph unicode="n" horiz-adv-x="1001" d="M119 0v776q262 227 463 228q303 0 303 -369v-635h-152v557q0 137 -31 205q-43 96 -165 96q-125 0 -265 -121v-737h-153z" />
<glyph unicode="o" horiz-adv-x="972" d="M49 487q0 225 105 365q115 154 333 154q219 0 334 -154q103 -138 103 -365q0 -231 -101 -364q-113 -152 -336 -152q-221 0 -335 154q-102 135 -103 362zM211 487q0 -383 276 -383q277 0 277 383q0 385 -277 385q-276 0 -276 -385z" />
<glyph unicode="p" horiz-adv-x="991" d="M119 -342v1216q213 158 354 158q170 0 293 -92t160 -256q14 -64 14 -248q0 -186 -96 -307q-102 -131 -285 -131q-133 0 -287 143v-483h-153zM272 260q135 -117 234 -117q145 0 215 117q57 94 57 250q0 154 -78 262q-88 123 -235 123q-104 0 -193 -64v-571z" />
<glyph unicode="q" horiz-adv-x="991" d="M49 494q0 131 14 192q37 158 162 252t289 94q139 0 356 -158v-1216h-153v483q-154 -143 -287 -143q-203 0 -299 154q-82 129 -82 342zM211 510q0 -150 59 -248q72 -119 211 -119q101 0 236 117v571q-88 63 -193 64q-152 0 -237 -121q-76 -106 -76 -264z" />
<glyph unicode="r" horiz-adv-x="647" d="M119 0v899q170 131 370 131q84 0 142 -12v-154q-66 29 -129 29q-141 0 -228 -62v-831h-155z" />
<glyph unicode="s" horiz-adv-x="798" d="M57 57v179h4q162 -131 328 -132q217 0 217 154q0 98 -141 148q-88 31 -262 90q-141 68 -142 209q0 145 115 225q99 71 248 71h4q170 0 303 -69v-168h-4q-136 108 -300 108h-3q-203 0 -203 -145q0 -98 141 -149q98 -35 261 -89q141 -69 141 -210q0 -152 -119 -232 q-104 -72 -262 -72q-168 0 -326 82z" />
<glyph unicode="t" horiz-adv-x="598" d="M18 784v127h113v346h158v-346h307v-127h-307v-467q0 -100 33 -147q39 -55 137 -55q68 0 135 30h2v-137q-93 -28 -174 -28h-6q-285 0 -285 317v487h-113z" />
<glyph unicode="u" horiz-adv-x="1001" d="M115 350v627h151v-569q0 -150 39 -215q53 -88 193 -89q139 0 192 89q41 68 41 215v569h154v-627q0 -379 -387 -379q-383 0 -383 379z" />
<glyph unicode="v" horiz-adv-x="892" d="M8 977h168l275 -774l270 774h164l-369 -977h-141z" />
<glyph unicode="w" horiz-adv-x="1331" d="M29 977h159l179 -780l239 780h127l248 -780l168 780h154l-248 -977h-146l-243 776l-244 -776h-143z" />
<glyph unicode="x" horiz-adv-x="886" d="M14 0l338 485l-334 492h193l240 -375l245 375h176l-335 -481l335 -496h-192l-240 379l-250 -379h-176z" />
<glyph unicode="y" horiz-adv-x="892" d="M8 977h168l275 -739l270 739h164l-520 -1319h-164l164 387z" />
<glyph unicode="z" horiz-adv-x="794" d="M45 0v117l522 737h-504v123h689v-111l-527 -739h535v-127h-715z" />
<glyph unicode="{" horiz-adv-x="858" d="M51 467v123q223 0 275 205l53 383q59 205 299 204h96v-110q-68 2 -86 2q-162 0 -186 -154q-6 -39 -35 -315q-41 -195 -213 -260v-33q160 -57 207 -213q18 -61 28 -274q8 -150 74 -199q55 -41 211 -41v-107h-96q-233 0 -293 205q-33 190 -63 379q-53 205 -271 205z" />
<glyph unicode="|" horiz-adv-x="684" d="M268 -322v1704h148v-1704h-148z" />
<glyph unicode="}" horiz-adv-x="858" d="M86 -215q233 -2 272 143q4 102 21 310q20 195 231 274v33q-162 61 -211 217q-20 66 -28 274q-6 152 -70 199q-53 37 -215 37v110h96q244 0 303 -204q25 -193 52 -383q49 -205 272 -205v-123q-229 0 -277 -205q-23 -188 -47 -379q-53 -205 -303 -205h-96v107z" />
<glyph unicode="~" horiz-adv-x="1304" d="M117 346q4 180 61 301q78 164 236 164q92 0 184 -86l143 -160q78 -86 144 -86q164 0 164 334h137q-2 -184 -60 -305q-76 -162 -237 -162q-98 0 -184 86q-47 53 -142 158q-78 86 -143 86q-158 0 -168 -330h-135z" />
<glyph unicode="&#xa1;" horiz-adv-x="593" d="M209 -180v938h178v-938h-178zM209 948v174h178v-174h-178z" />
<glyph unicode="&#xa2;" d="M100 487q0 205 95 330q100 135 299 158v315h90v-313q147 -6 268 -70v-168q-127 104 -268 125v-749q139 14 268 123v-164q-137 -63 -268 -72v-317h-90v319q-393 45 -394 483zM258 487q0 -333 236 -368v741q-236 -39 -236 -373z" />
<glyph unicode="&#xa3;" d="M76 0v172q180 57 180 369h-141v110h141q0 37 -2 107.5t-2 107.5q0 463 369 463q113 0 256 -39v-174h-3q-109 78 -237 78q-221 0 -221 -270v-273h325v-110h-325q0 -266 -199 -383v-21h684v-137h-825z" />
<glyph unicode="&#xa4;" d="M57 233l189 189q-47 76 -47 158q0 78 49 155l-191 189l88 88l189 -191q74 49 155 49q80 0 158 -49l189 191l88 -86l-191 -191q51 -78 51 -155q0 -84 -51 -158l191 -189l-86 -88l-189 191q-80 -49 -160 -49q-82 0 -153 49l-193 -193zM313 580q0 -76 50.5 -129.5 t125.5 -53.5q76 0 126.5 53.5t50.5 129.5t-50.5 127t-126.5 51t-126 -51.5t-50 -126.5z" />
<glyph unicode="&#xa5;" d="M55 1303h172l265 -572l268 572h166l-359 -711v-92h316v-111h-316v-182h316v-113h-316v-94h-151v94h-322v113h322v182h-322v111h322v75z" />
<glyph unicode="&#xa6;" horiz-adv-x="684" d="M268 -322v691h148v-691h-148zM268 690v692h148v-692h-148z" />
<glyph unicode="&#xa7;" d="M104 465q0 178 177 287v10q-150 82 -150 246q0 168 131 252q111 72 289 71q133 0 278 -49v-162h-4q-152 78 -295 78q-90 0 -157 -37q-84 -45 -84 -129q0 -117 151 -180q27 -10 281 -111q151 -76 151 -215q0 -180 -176 -284v-11q152 -78 152 -243q0 -164 -135 -252 q-113 -74 -287 -74q-135 0 -274 49v162q156 -78 292 -78q94 0 160 37q82 45 82 131q0 123 -151 182q-92 35 -279 103q-152 74 -152 217zM258 506q0 -106 117 -168q61 -33 211 -68q133 80 133 215q0 106 -117 168q-53 29 -209 70q-135 -76 -135 -217z" />
<glyph unicode="&#xa8;" d="M223 1143v168h168v-168h-168zM590 1143v168h168v-168h-168z" />
<glyph unicode="&#xa9;" horiz-adv-x="1662" d="M74 573q0 340 210 549t550 209q336 0 545.5 -211t209.5 -547t-210 -546.5t-545 -210.5q-338 0 -549 210t-211 547zM168 573q0 -301 183.5 -487t484.5 -186q297 0 481 187t184 486q0 297 -184 483.5t-481 186.5q-301 0 -484.5 -184.5t-183.5 -485.5zM467 578 q0 188 102.5 304.5t288.5 116.5q129 0 254 -63v-152h-6q-106 94 -246 95q-240 0 -239 -301q0 -299 239 -299q139 0 246 96h6v-152q-143 -66 -254 -65q-188 0 -289.5 114.5t-101.5 305.5z" />
<glyph unicode="&#xaa;" horiz-adv-x="882" d="M109 844q0 190 69 309q84 145 262 145q141 0 324 -124v-680h-121v90q-117 -111 -231 -111q-154 0 -234 113q-70 98 -69 258zM231 883q0 -297 226 -297q77 0 186 94v461q-92 49 -180 49q-119 0 -180 -98q-51 -82 -52 -209z" />
<glyph unicode="&#xab;" horiz-adv-x="1028" d="M90 532v74l440 389v-159l-297 -267l297 -260v-162zM492 535v71l421 361v-150l-286 -248l286 -243v-152z" />
<glyph unicode="&#xac;" horiz-adv-x="1304" d="M137 537v131h1020v-619h-137v488h-883z" />
<glyph unicode="&#xad;" horiz-adv-x="1304" d="M137 502v137h1028v-137h-1028z" />
<glyph unicode="&#xae;" horiz-adv-x="1662" d="M74 573q0 340 210 549t550 209q336 0 545.5 -211t209.5 -547t-210 -546.5t-545 -210.5q-338 0 -549 210t-211 547zM168 573q0 -301 183.5 -487t484.5 -186q297 0 481 187t184 486q0 297 -184 483.5t-481 186.5q-301 0 -484.5 -184.5t-183.5 -485.5zM573 190v797h252 q309 0 310 -217q0 -160 -183 -231l305 -349h-184l-250 314h-114v-314h-136zM709 604h94q184 0 184 158q0 125 -168 125h-110v-283z" />
<glyph unicode="&#xaf;" d="M-14 1692v114h1007v-114h-1007z" />
<glyph unicode="&#xb0;" horiz-adv-x="845" d="M88 993q0 145 94 239.5t240 94.5q143 0 237.5 -95.5t94.5 -238.5q0 -145 -93.5 -238t-238.5 -93t-239.5 93t-94.5 238zM217 993q0 -90 57.5 -149.5t147.5 -59.5t148.5 59.5t58.5 149.5t-58.5 150.5t-148.5 60.5t-147.5 -60.5t-57.5 -150.5z" />
<glyph unicode="&#xb1;" horiz-adv-x="1304" d="M141 139v129h445v385h-445v127h445v449h133v-449h442v-127h-442v-385h442v-129h-1020z" />
<glyph unicode="&#xb2;" horiz-adv-x="882" d="M160 494v129q184 135 246 194q143 137 143 258q0 135 -148 135q-123 0 -227 -80h-8v148q127 53 256 53q123 0 199 -61q84 -66 84 -185q0 -127 -148 -272q-57 -57 -252 -203h453v-116h-598z" />
<glyph unicode="&#xb3;" horiz-adv-x="882" d="M160 524v142h10q88 -80 242 -80q178 0 178 135q0 94 -111 123q-49 12 -184 10v111l102 -2q172 0 172 133q0 121 -157 121q-133 0 -230 -84h-8v145q127 53 256 53q109 0 188 -49q94 -57 95 -158q0 -143 -156 -196v-17q176 -32 176 -188q0 -125 -100 -191q-88 -57 -219 -57 q-135 0 -254 49z" />
<glyph unicode="&#xb4;" d="M397 1141l154 325h205l-238 -325h-121z" />
<glyph unicode="&#xb5;" horiz-adv-x="1019" d="M119 -326v1303h153v-735q137 -119 265 -119q125 0 168 94q29 61 28 205v555h152v-635q0 -162 -70 -258q-78 -109 -233 -109q-133 0 -310 103v-404h-153z" />
<glyph unicode="&#xb6;" d="M49 924q0 193 129 290q115 88 311 89h367v-1620h-108v1519h-179v-1519h-114v843q-186 4 -296 108.5t-110 289.5z" />
<glyph unicode="&#xb7;" horiz-adv-x="634" d="M215 729v248h207v-248h-207z" />
<glyph unicode="&#xb8;" d="M252 -178h2q66 -29 129 -29q109 0 143 84q23 57 17 178h127q4 -90 4 -106q0 -127 -71 -204t-197 -77q-84 0 -154 21v133z" />
<glyph unicode="&#xb9;" horiz-adv-x="882" d="M217 1098v96q199 0 211 113h117v-813h-137v604h-191z" />
<glyph unicode="&#xba;" horiz-adv-x="882" d="M74 901q0 193 88 305q96 125 282 125q182 0 279 -127q88 -115 88 -303q0 -186 -88 -301q-96 -127 -279 -127q-184 0 -280 125q-90 115 -90 303zM221 901q0 -307 223 -307q220 0 220 307q0 309 -220 309q-223 0 -223 -309z" />
<glyph unicode="&#xbb;" horiz-adv-x="1028" d="M115 174v152l284 243l-284 248v150l422 -361v-71zM496 147v162l297 260l-297 267v159l444 -389v-74z" />
<glyph unicode="&#xbc;" horiz-adv-x="1792" d="M150 1100v94q90 0 131 14q68 25 77 99h109v-807h-133v600h-184zM412 0l684 1303h129l-680 -1303h-133zM950 195v155l402 471h123v-522h143v-104h-143v-195h-121v195h-404zM1034 299h324v379z" />
<glyph unicode="&#xbd;" horiz-adv-x="1792" d="M150 1100v94q90 0 131 14q68 25 77 99h109v-807h-133v600h-184zM412 0l684 1303h129l-680 -1303h-133zM1114 0v119q168 123 242 194q143 141 143 256q0 133 -149 133q-121 0 -224 -79h-6v147q123 51 250 51q123 0 197 -57q82 -63 82 -182q0 -131 -142 -271 q-51 -51 -250 -200h447v-111h-590z" />
<glyph unicode="&#xbe;" horiz-adv-x="1792" d="M123 526v142h6q90 -80 240 -80q180 0 180 133q0 96 -109 123q-49 12 -184 10v109l106 -2q166 0 166 135q0 121 -157 121q-135 0 -228 -87h-8v146q125 53 254 53q109 0 184 -47q92 -55 93 -158q0 -145 -152 -196v-15q174 -34 174 -190q0 -127 -98 -191q-82 -53 -217 -53 t-250 47zM492 0l682 1303h133l-680 -1303h-135zM999 195v155l398 471h125v-522h141v-104h-141v-195h-123v195h-400zM1083 299h320v379z" />
<glyph unicode="&#xbf;" horiz-adv-x="851" d="M49 303q0 143 113 266q72 78 233 183v196h146v-258q-319 -184 -320 -373q0 -205 234 -204q162 0 297 92v-170q-160 -63 -314 -64q-166 0 -272 82q-117 88 -117 250zM381 1128v175h168v-175h-168z" />
<glyph unicode="&#xc0;" horiz-adv-x="1075" d="M2 0l440 1300h193l438 -1300h-170l-119 367h-497l-119 -367h-166zM313 1792h199l154 -313h-117zM332 504h407l-207 643z" />
<glyph unicode="&#xc1;" horiz-adv-x="1075" d="M2 0l440 1300h193l438 -1300h-170l-119 367h-497l-119 -367h-166zM332 504h407l-207 643zM393 1479l154 313h198l-233 -313h-119z" />
<glyph unicode="&#xc2;" horiz-adv-x="1075" d="M2 0l440 1300h193l438 -1300h-170l-119 367h-497l-119 -367h-166zM229 1456l195 320h199l192 -320h-127l-166 227l-166 -227h-127zM332 504h407l-207 643z" />
<glyph unicode="&#xc3;" horiz-adv-x="1075" d="M2 0l440 1300h193l438 -1300h-170l-119 367h-497l-119 -367h-166zM186 1454q18 262 213 262q55 0 279 -139q90 -4 90 143h113q-18 -262 -209 -262q-51 0 -285 141q-86 0 -88 -145h-113zM332 504h407l-207 643z" />
<glyph unicode="&#xc4;" horiz-adv-x="1075" d="M2 0l440 1300h193l438 -1300h-170l-119 367h-497l-119 -367h-166zM262 1462v158h168v-158h-168zM332 504h407l-207 643zM631 1462v158h164v-158h-164z" />
<glyph unicode="&#xc5;" horiz-adv-x="1075" d="M2 0l420 1243q-150 68 -150 236q0 115 76 188.5t191 73.5q113 0 188.5 -75t75.5 -187q0 -168 -150 -236l420 -1243h-170l-119 367h-497l-119 -367h-166zM332 504h407l-207 643zM391 1479q0 -68 40 -113t108 -45q63 0 105 46t42 112q0 68 -40 112.5t-107 44.5 q-66 0 -107 -45t-41 -112z" />
<glyph unicode="&#xc6;" horiz-adv-x="1638" d="M2 0l524 1303h1059v-144h-622v-371h579v-143h-579v-502h622v-143h-784v494h-439l-192 -494h-168zM416 627h385v542h-162z" />
<glyph unicode="&#xc7;" horiz-adv-x="1077" d="M55 651q0 295 144 477q160 199 446 199q205 0 402 -110v-199h-9q-184 174 -395 174q-215 0 -324 -170q-92 -143 -92 -371q0 -219 97 -364q111 -170 319 -170q225 0 397 172h7v-201q-209 -98 -375 -108q0 -311 -266 -312q-82 0 -152 21v131h2q63 -29 127 -29q94 0 131 53 q31 43 31 142q-246 33 -375 229q-115 174 -115 436z" />
<glyph unicode="&#xc8;" horiz-adv-x="1005" d="M135 0v1298h811v-143h-651v-369h608v-143h-608v-500h651v-143h-811zM299 1792h201l153 -313h-123z" />
<glyph unicode="&#xc9;" horiz-adv-x="1005" d="M135 0v1298h811v-143h-651v-369h608v-143h-608v-500h651v-143h-811zM442 1479l156 313h199l-232 -313h-123z" />
<glyph unicode="&#xca;" horiz-adv-x="1005" d="M135 0v1298h811v-143h-651v-369h608v-143h-608v-500h651v-143h-811zM250 1473l194 319h197l195 -319h-127l-168 227l-168 -227h-123z" />
<glyph unicode="&#xcb;" horiz-adv-x="1005" d="M135 0v1300h811v-145h-651v-369h608v-143h-608v-500h651v-143h-811zM311 1481v159h168v-159h-168zM676 1481v159h170v-159h-170z" />
<glyph unicode="&#xcc;" horiz-adv-x="669" d="M80 0v123h172v1055h-172v120h508v-120h-172v-1055h172v-123h-508zM98 1792h203l156 -313h-119z" />
<glyph unicode="&#xcd;" horiz-adv-x="669" d="M80 0v123h172v1055h-172v120h508v-120h-172v-1055h172v-123h-508zM213 1479l154 313h202l-235 -313h-121z" />
<glyph unicode="&#xce;" horiz-adv-x="669" d="M43 1473l195 319h196l195 -319h-129l-166 227l-168 -227h-123zM80 0v123h172v1055h-172v120h508v-120h-172v-1055h172v-123h-508z" />
<glyph unicode="&#xcf;" horiz-adv-x="669" d="M66 1481v159h167v-159h-167zM80 0v123h172v1055h-172v122h508v-122h-172v-1055h172v-123h-508zM434 1481v159h170v-159h-170z" />
<glyph unicode="&#xd0;" horiz-adv-x="1251" d="M23 653v115h147v535h293q733 -1 733 -652q0 -238 -117 -403q-123 -174 -348 -228q-86 -20 -264 -20h-297v653h-147zM334 137h139q553 0 553 514t-553 514h-139v-397h289v-115h-289v-516z" />
<glyph unicode="&#xd1;" horiz-adv-x="1196" d="M135 0v1298h238l538 -1056v1056h152v-1298h-186l-592 1147v-1147h-150zM274 1473q6 106 56 178q57 84 155 84q49 0 283 -140q88 -2 92 144h111q-18 -262 -213 -262q-63 0 -283 141q-86 0 -88 -145h-113z" />
<glyph unicode="&#xd2;" horiz-adv-x="1269" d="M55 649q0 301 138 479q152 199 442 199q289 0 438 -201q135 -180 135 -477t-135 -477q-150 -201 -438 -201q-291 0 -442 199q-137 178 -138 479zM227 649q0 -227 88 -368q104 -170 320 -170q215 0 319 170q86 139 86 368t-86 369q-104 172 -319 172q-217 0 -322 -170 q-86 -139 -86 -371zM385 1792h199l155 -313h-123z" />
<glyph unicode="&#xd3;" horiz-adv-x="1269" d="M55 649q0 301 138 479q152 199 442 199q289 0 438 -201q135 -180 135 -477t-135 -477q-150 -201 -438 -201q-291 0 -442 199q-137 178 -138 479zM227 649q0 -227 88 -368q104 -170 320 -170q215 0 319 170q86 139 86 368t-86 369q-104 172 -319 172q-217 0 -322 -170 q-86 -139 -86 -371zM514 1479l158 313h194l-231 -313h-121z" />
<glyph unicode="&#xd4;" horiz-adv-x="1269" d="M55 649q0 301 138 479q152 199 442 199q289 0 438 -201q135 -180 135 -477t-135 -477q-150 -201 -438 -201q-291 0 -442 199q-137 178 -138 479zM227 649q0 -227 88 -368q104 -170 320 -170q215 0 319 170q86 139 86 368t-86 369q-104 172 -319 172q-217 0 -322 -170 q-86 -139 -86 -371zM332 1473l196 319h195l192 -319h-124l-168 227l-166 -227h-125z" />
<glyph unicode="&#xd5;" horiz-adv-x="1269" d="M55 649q0 299 138 479q152 201 442 201q291 0 440 -201q133 -178 133 -479q0 -297 -135 -477q-150 -201 -438 -201q-291 0 -442 199q-137 178 -138 479zM227 649q0 -227 88 -368q104 -170 320 -170q215 0 319 170q86 139 86 368t-86 369q-104 172 -319 172 q-217 0 -322 -170q-86 -139 -86 -371zM274 1473q6 106 56 178q57 84 155 84q49 0 281 -140q90 -2 90 144h113q-20 -262 -211 -262q-63 0 -283 141q-86 0 -88 -145h-113z" />
<glyph unicode="&#xd6;" horiz-adv-x="1269" d="M55 649q0 299 138 479q152 201 442 201q293 0 442 -201q131 -176 131 -479q0 -297 -135 -477q-150 -201 -438 -201q-291 0 -442 199q-137 178 -138 479zM227 649q0 -227 88 -368q104 -170 320 -170q215 0 319 170q86 139 86 368t-86 369q-104 172 -319 172 q-217 0 -322 -170q-86 -139 -86 -371zM365 1481v159h165v-159h-165zM729 1481v159h166v-159h-166z" />
<glyph unicode="&#xd7;" horiz-adv-x="1304" d="M184 193l383 376l-383 377l92 94l375 -381l379 381l90 -94l-381 -377l381 -376l-90 -91l-379 383l-375 -383z" />
<glyph unicode="&#xd8;" horiz-adv-x="1269" d="M55 651q0 295 140 477q154 203 440 203q186 0 330 -102l104 155h115l-146 -215q170 -192 170 -518q0 -297 -135 -477q-152 -203 -438 -203q-188 0 -336 105l-117 -178h-119l164 237q-172 190 -172 516zM225 651q0 -229 92 -381l566 838q-102 86 -248 86q-215 0 -322 -172 q-88 -141 -88 -371zM385 197q102 -86 250 -86q213 0 319 172q88 141 88 368q0 236 -96 385z" />
<glyph unicode="&#xd9;" horiz-adv-x="1175" d="M117 487v811h164v-811q0 -379 307 -378q307 0 307 374v815h164v-811q0 -516 -471 -516t-471 516zM387 1792h199l155 -313h-120z" />
<glyph unicode="&#xda;" horiz-adv-x="1175" d="M117 487v811h164v-811q0 -379 307 -378q307 0 307 374v815h164v-811q0 -516 -471 -516t-471 516zM510 1479l154 313h200l-233 -313h-121z" />
<glyph unicode="&#xdb;" horiz-adv-x="1175" d="M117 487v811h164v-811q0 -379 307 -378q307 0 307 374v815h164v-811q0 -516 -471 -516t-471 516zM289 1473l196 319h193l194 -319h-124l-168 227l-168 -227h-123z" />
<glyph unicode="&#xdc;" horiz-adv-x="1175" d="M117 487v813h164v-813q0 -379 307 -378q307 0 307 374v817h164v-813q0 -516 -471 -516t-471 516zM344 1481v159h168v-159h-168zM709 1481v159h165v-159h-165z" />
<glyph unicode="&#xdd;" horiz-adv-x="1032" d="M-4 1298h180l344 -581l346 581h172l-440 -720v-578h-164v559zM418 1479l153 313h199l-229 -313h-123z" />
<glyph unicode="&#xde;" horiz-adv-x="1013" d="M135 0v1303h160v-238l211 2q452 0 452 -379q0 -250 -223 -344q-147 -61 -440 -61v-283h-160zM295 418h127q364 0 364 266q0 244 -337 244h-154v-510z" />
<glyph unicode="&#xdf;" horiz-adv-x="980" d="M119 0v944q0 195 96 307q102 121 293 121q145 0 237 -67q104 -76 105 -215q0 -102 -62.5 -176t-162.5 -103v-18q311 -68 311 -373q0 -201 -114.5 -322t-313.5 -121q-53 0 -102 11v135h2q18 0 54 -8.5t54 -8.5q256 0 256 320q0 295 -360 295v127q279 0 278 225 q0 82 -51 130t-133 48q-233 0 -234 -301v-950h-153z" />
<glyph unicode="&#xe0;" horiz-adv-x="995" d="M49 489q0 133 14 195q37 158 162 252t289 94q143 0 356 -158v-872h-153v164q-117 -168 -287 -168q-201 0 -299 154q-82 127 -82 339zM211 508q0 -150 59 -248q72 -119 211 -119q156 1 236 142v546q-88 63 -193 64q-152 0 -237 -121q-76 -106 -76 -264zM223 1466h199 l156 -315h-123z" />
<glyph unicode="&#xe1;" horiz-adv-x="995" d="M49 489q0 133 14 195q37 158 162 252t289 94q143 0 356 -158v-872h-153v164q-117 -168 -287 -168q-201 0 -299 154q-82 127 -82 339zM211 508q0 -150 59 -248q72 -119 211 -119q156 1 236 142v546q-88 63 -193 64q-152 0 -237 -121q-76 -106 -76 -264zM371 1151l153 315 h203l-238 -315h-118z" />
<glyph unicode="&#xe2;" horiz-adv-x="995" d="M49 489q0 133 14 195q37 158 162 252t289 94q143 0 356 -158v-872h-153v164q-117 -168 -287 -168q-201 0 -299 154q-82 127 -82 339zM174 1145l197 321h196l193 -321h-125l-170 229l-166 -229h-125zM211 508q0 -150 59 -248q72 -119 211 -119q156 1 236 142v546 q-88 63 -193 64q-152 0 -237 -121q-76 -106 -76 -264z" />
<glyph unicode="&#xe3;" horiz-adv-x="995" d="M49 489q0 133 14 195q37 158 162 252t289 94q143 0 356 -158v-872h-153v164q-117 -168 -287 -168q-201 0 -299 154q-82 127 -82 339zM117 1163q20 260 213 260q49 0 282 -135q88 -4 90 142h113q-18 -262 -213 -263q-49 0 -283 142q-86 0 -88 -146h-114zM211 508 q0 -150 59 -248q72 -119 211 -119q156 1 236 142v546q-88 63 -193 64q-152 0 -237 -121q-76 -106 -76 -264z" />
<glyph unicode="&#xe4;" horiz-adv-x="995" d="M49 492q0 131 14 192q37 158 162 252t289 94q143 0 356 -158v-872h-153v164q-117 -168 -287 -168q-203 0 -299 154q-82 129 -82 342zM197 1153v158h165v-158h-165zM211 508q0 -150 59 -248q72 -119 211 -119q156 1 236 144v544q-88 63 -193 64q-152 0 -237 -121 q-76 -106 -76 -264zM563 1153v158h168v-158h-168z" />
<glyph unicode="&#xe5;" horiz-adv-x="991" d="M49 489q0 205 68 326q78 139 260 197q-145 74 -146 235q0 117 74 188.5t191 71.5q115 0 190.5 -72.5t75.5 -187.5q0 -156 -139 -233q96 -35 247 -142v-872h-153v164q-117 -168 -287 -168q-201 0 -299 154q-82 127 -82 339zM211 508q0 -150 59 -248q72 -119 211 -119 q156 1 236 142v546q-88 61 -193 62q-154 0 -237 -119q-76 -104 -76 -264zM348 1245q0 -68 41 -113t107 -45q68 0 108.5 45t40.5 113t-41 114t-108 46q-68 0 -108 -46t-40 -114z" />
<glyph unicode="&#xe6;" horiz-adv-x="1576" d="M49 276q0 213 234 289q133 43 411 47v60q0 197 -258 196q-135 0 -295 -69h-6v159q162 45 303 46q260 0 361 -166q137 168 338 168q184 0 296.5 -109t112.5 -291q0 -55 -14 -110h-696q0 -387 340 -387q221 0 333 122h2v-174q-137 -82 -333 -82q-276 0 -410 187 q-203 -188 -416 -189q-131 0 -217 86t-86 217zM209 287q0 -174 201 -174q176 0 311 143q-35 102 -35 238q-211 -4 -295 -25q-182 -45 -182 -182zM838 608h544q-18 272 -254 273q-248 0 -290 -273z" />
<glyph unicode="&#xe7;" horiz-adv-x="827" d="M51 489q0 229 111 365q119 147 344 147q145 0 289 -75v-176q-141 119 -289 118q-152 0 -227 -118q-66 -100 -66 -261q0 -160 66 -260q76 -119 227 -118q160 0 289 120v-176q-141 -66 -258 -73q0 -313 -267 -314q-84 0 -153 21v131h4q63 -29 127 -29q94 0 131 55 q29 43 29 144q-186 29 -277 174q-80 127 -80 325z" />
<glyph unicode="&#xe8;" horiz-adv-x="942" d="M51 485q0 223 113 363q123 154 340 153q184 0 295.5 -109.5t111.5 -293.5q0 -61 -14 -121h-686q0 -166 82 -264q86 -104 250 -104q221 0 331 118h3v-170q-127 -82 -332 -82q-240 0 -367 134.5t-127 375.5zM211 590h537q-6 287 -254 287q-129 0 -203 -78t-80 -209z M236 1466h202l152 -315h-119z" />
<glyph unicode="&#xe9;" horiz-adv-x="942" d="M51 485q0 223 113 363q123 154 340 153q184 0 295.5 -109.5t111.5 -293.5q0 -61 -14 -121h-686q0 -166 82 -264q86 -104 250 -104q221 0 331 118h3v-170q-127 -82 -332 -82q-240 0 -367 134.5t-127 375.5zM211 590h537q-6 287 -254 287q-129 0 -203 -78t-80 -209z M416 1151l155 315h199l-231 -315h-123z" />
<glyph unicode="&#xea;" horiz-adv-x="942" d="M51 485q0 223 113 363q123 154 340 153q184 0 295.5 -109.5t111.5 -293.5q0 -61 -14 -121h-686q0 -166 82 -264q86 -104 250 -104q221 0 331 118h3v-170q-127 -82 -332 -82q-240 0 -367 134.5t-127 375.5zM209 1145l197 321h192l197 -321h-127l-168 229l-166 -229h-125z M211 590h537q-6 287 -254 287q-129 0 -203 -78t-80 -209z" />
<glyph unicode="&#xeb;" horiz-adv-x="942" d="M51 485q0 223 113 365q121 154 340 154q186 0 296.5 -111t110.5 -297q0 -61 -14 -119h-686q0 -166 82 -264q86 -104 250 -104q221 0 331 118h3v-170q-127 -82 -332 -82q-240 0 -367 134.5t-127 375.5zM211 590h537q-6 287 -254 287q-129 0 -203 -78t-80 -209zM236 1153 v158h165v-158h-165zM602 1153v158h168v-158h-168z" />
<glyph unicode="&#xec;" horiz-adv-x="409" d="M6 1466h205l154 -315h-123zM127 0v973h158v-973h-158z" />
<glyph unicode="&#xed;" horiz-adv-x="409" d="M111 1151l151 315h207l-240 -315h-118zM123 0v973h158v-973h-158z" />
<glyph unicode="&#xee;" horiz-adv-x="409" d="M-43 1145l149 321h195l150 -321h-121l-127 239l-129 -239h-117zM127 0v973h156v-973h-156z" />
<glyph unicode="&#xef;" horiz-adv-x="409" d="M-35 1153v158h162v-158h-162zM127 0v973h156v-973h-156zM285 1153v158h159v-158h-159z" />
<glyph unicode="&#xf0;" d="M92 389q0 190 105.5 310t294.5 120q133 0 247 -82q-2 281 -118 398l-187 -183l-12 127l110 109q-41 6 -73 6q-164 0 -314 -135h-4l-16 160q162 111 367 110q88 0 161 -31l176 170l13 -127l-107 -100q170 -174 170 -620q0 -268 -88 -437q-113 -215 -358 -215 q-176 0 -275 125q-92 115 -92 295zM256 401q0 -125 45 -202q55 -98 172 -99q277 1 277 447q0 37 -2 78q-102 66 -220 65q-272 0 -272 -289z" />
<glyph unicode="&#xf1;" horiz-adv-x="1001" d="M119 0v776q262 223 463 223q156 0 233 -108q70 -96 70 -258v-633h-152v555q0 137 -31 205q-43 96 -165 96q-125 0 -265 -123v-733h-153zM156 1163q6 109 55 178q57 82 160 82q47 0 282 -135q88 -4 90 142h113q-18 -262 -215 -263q-51 0 -281 142q-88 0 -90 -146h-114z " />
<glyph unicode="&#xf2;" horiz-adv-x="972" d="M49 487q0 225 105 363q115 152 333 151q219 0 334 -151q103 -136 103 -363q0 -231 -101 -364q-113 -152 -336 -152q-221 0 -335 154q-102 135 -103 362zM211 487q0 -383 276 -383q277 0 277 383q0 381 -277 381q-276 0 -276 -381zM223 1466h197l155 -315h-120z" />
<glyph unicode="&#xf3;" horiz-adv-x="972" d="M49 487q0 225 105 363q115 152 333 151q219 0 334 -151q103 -136 103 -363q0 -231 -101 -364q-113 -152 -336 -152q-221 0 -335 154q-102 135 -103 362zM211 487q0 -383 276 -383q277 0 277 383q0 381 -277 381q-276 0 -276 -381zM399 1151l152 315h203l-234 -315h-121z " />
<glyph unicode="&#xf4;" horiz-adv-x="972" d="M49 487q0 225 105 363q115 152 333 151q219 0 334 -151q103 -136 103 -363q0 -231 -101 -364q-113 -152 -336 -152q-221 0 -335 154q-102 135 -103 362zM197 1145l194 321h195l194 -321h-127l-168 229l-166 -229h-122zM211 487q0 -383 276 -383q277 0 277 383 q0 381 -277 381q-276 0 -276 -381z" />
<glyph unicode="&#xf5;" horiz-adv-x="972" d="M49 487q0 225 105 363q115 152 333 151q219 0 334 -151q103 -136 103 -363q0 -231 -101 -364q-113 -152 -336 -152q-221 0 -335 154q-102 135 -103 362zM137 1163q6 109 56 178q57 82 159 82q47 0 283 -135q86 -4 88 142h113q-16 -262 -213 -263q-49 0 -281 142 q-88 2 -90 -146h-115zM211 487q0 -383 276 -383q277 0 277 383q0 381 -277 381q-276 0 -276 -381z" />
<glyph unicode="&#xf6;" horiz-adv-x="972" d="M49 487q0 225 105 363q115 154 333 154q219 0 334 -154q103 -138 103 -363q0 -231 -101 -364q-113 -152 -336 -152q-221 0 -335 154q-102 135 -103 362zM211 487q0 -383 276 -383q277 0 277 383q0 381 -277 381q-276 0 -276 -381zM221 1153v158h168v-158h-168zM588 1153 v158h168v-158h-168z" />
<glyph unicode="&#xf7;" horiz-adv-x="1304" d="M137 506v129h1028v-129h-1028zM553 14v232h199v-232h-199zM553 895v231h199v-231h-199z" />
<glyph unicode="&#xf8;" horiz-adv-x="972" d="M41 -131l145 227q-135 143 -135 391q0 225 103 363q115 154 333 154q129 0 238 -72l96 151h99l-134 -202q138 -146 138 -394q0 -231 -101 -364q-113 -150 -336 -150q-129 0 -239 74l-111 -178h-96zM209 487q0 -166 53 -272l393 604q-72 53 -168 53q-279 0 -278 -385z M319 158q74 -51 168 -52q281 0 281 381q0 172 -57 275z" />
<glyph unicode="&#xf9;" horiz-adv-x="1001" d="M115 350v623h151v-567q0 -147 41 -216q53 -86 191 -86q137 0 190 89q43 68 43 213v567h154v-623q0 -379 -387 -379q-383 0 -383 379zM238 1466h202l152 -315h-119z" />
<glyph unicode="&#xfa;" horiz-adv-x="1001" d="M115 350v623h151v-567q0 -147 41 -216q53 -86 191 -86q137 0 190 89q43 68 43 213v567h154v-623q0 -379 -387 -379q-383 0 -383 379zM399 1151l152 315h203l-234 -315h-121z" />
<glyph unicode="&#xfb;" horiz-adv-x="1001" d="M115 350v623h151v-567q0 -147 41 -216q53 -86 191 -86q137 0 190 89q43 68 43 213v567h154v-623q0 -379 -387 -379q-383 0 -383 379zM203 1145l196 321h193l196 -321h-126l-170 229l-164 -229h-125z" />
<glyph unicode="&#xfc;" horiz-adv-x="1001" d="M115 350v623h151v-567q0 -147 41 -216q53 -86 191 -86q137 0 190 89q43 68 43 213v567h154v-623q0 -379 -387 -379q-383 0 -383 379zM231 1153v158h168v-158h-168zM600 1153v158h168v-158h-168z" />
<glyph unicode="&#xfd;" horiz-adv-x="892" d="M8 975h168l275 -739l270 739h164l-520 -1317h-164l164 385zM346 1151l156 315h200l-233 -315h-123z" />
<glyph unicode="&#xfe;" horiz-adv-x="991" d="M119 -342v1704h153v-498q154 139 310 140q188 0 282 -160q76 -129 76 -330q0 -217 -96 -362q-111 -170 -318 -170q-127 0 -254 73v-397h-153zM272 176q119 -53 228 -53q278 0 278 373q0 360 -233 360q-135 0 -273 -115v-565z" />
<glyph unicode="&#xff;" horiz-adv-x="892" d="M8 975h168l275 -739l270 739h164l-520 -1317h-164l164 385zM190 1153v158h166v-158h-166zM557 1153v158h168v-158h-168z" />
<glyph unicode="&#x152;" horiz-adv-x="1751" d="M55 651q0 229 115 396q119 174 336 229q104 27 280 27h904v-144h-637v-371h594v-143h-594v-502h637v-143h-902q-733 0 -733 651zM227 651q0 -514 551 -514h113v1028h-111q-553 0 -553 -514z" />
<glyph unicode="&#x153;" horiz-adv-x="1630" d="M49 487q0 229 101 365q113 154 333 154q236 0 355 -193q125 193 358 193q182 0 294 -107t112 -289q0 -68 -19 -133h-680q0 -166 80 -264q84 -104 248 -104q221 0 332 122h2v-174q-133 -82 -332 -82q-268 0 -397 187q-123 -190 -353 -191q-217 0 -331 156 q-102 137 -103 360zM209 487q0 -383 274 -383q273 0 273 383q0 385 -273 385q-274 0 -274 -385zM903 592h529q-4 289 -246 289q-125 0 -201 -84q-70 -76 -82 -205z" />
<glyph unicode="&#x178;" horiz-adv-x="1032" d="M-4 1300h180l344 -583l346 583h172l-440 -722v-578h-164v559zM252 1481v159h166v-159h-166zM616 1481v159h168v-159h-168z" />
<glyph unicode="&#x2c6;" d="M197 1135l196 331h195l196 -331h-129l-168 237l-168 -237h-122z" />
<glyph unicode="&#x2dc;" d="M141 1153q4 111 54 182q57 88 159 88q53 0 283 -141q88 -2 90 148h113q-18 -272 -211 -273q-57 0 -287 146q-84 2 -90 -150h-111z" />
<glyph unicode="&#x2000;" horiz-adv-x="903" />
<glyph unicode="&#x2001;" horiz-adv-x="1806" />
<glyph unicode="&#x2002;" horiz-adv-x="903" />
<glyph unicode="&#x2003;" horiz-adv-x="1806" />
<glyph unicode="&#x2004;" horiz-adv-x="602" />
<glyph unicode="&#x2005;" horiz-adv-x="451" />
<glyph unicode="&#x2006;" horiz-adv-x="301" />
<glyph unicode="&#x2007;" horiz-adv-x="301" />
<glyph unicode="&#x2008;" horiz-adv-x="225" />
<glyph unicode="&#x2009;" horiz-adv-x="361" />
<glyph unicode="&#x200a;" horiz-adv-x="100" />
<glyph unicode="&#x2010;" horiz-adv-x="1304" d="M137 502v137h1028v-137h-1028z" />
<glyph unicode="&#x2011;" horiz-adv-x="1304" d="M137 502v137h1028v-137h-1028z" />
<glyph unicode="&#x2012;" horiz-adv-x="1304" d="M137 502v137h1028v-137h-1028z" />
<glyph unicode="&#x2013;" d="M-4 500v141h985v-141h-985z" />
<glyph unicode="&#x2014;" horiz-adv-x="1630" d="M-4 500v141h1638v-141h-1638z" />
<glyph unicode="&#x2018;" horiz-adv-x="378" d="M-49 1362h201l141 -490h-115z" />
<glyph unicode="&#x2019;" horiz-adv-x="378" d="M86 872l139 490h205l-229 -490h-115z" />
<glyph unicode="&#x201a;" horiz-adv-x="378" d="M-8 -242l139 490h203l-230 -490h-112z" />
<glyph unicode="&#x201c;" horiz-adv-x="718" d="M-49 1362h194l138 -490h-109zM299 1362h197l137 -490h-109z" />
<glyph unicode="&#x201d;" horiz-adv-x="718" d="M94 872l137 490h199l-225 -490h-111zM446 872l138 490h196l-225 -490h-109z" />
<glyph unicode="&#x201e;" horiz-adv-x="712" d="M-6 -242l139 490h197l-226 -490h-110zM344 -242l139 490h195l-223 -490h-111z" />
<glyph unicode="&#x2022;" horiz-adv-x="815" d="M100 580q0 131 87 219t219 88q131 0 220 -88t89 -219q0 -133 -88 -220.5t-221 -87.5q-131 0 -218.5 88.5t-87.5 219.5z" />
<glyph unicode="&#x2026;" horiz-adv-x="1464" d="M154 0v197h168v-197h-168zM649 0v197h166v-197h-166zM1141 0v197h170v-197h-170z" />
<glyph unicode="&#x202f;" horiz-adv-x="361" />
<glyph unicode="&#x2039;" horiz-adv-x="1028" d="M291 532v74l444 389v-159l-297 -267l297 -260v-162z" />
<glyph unicode="&#x203a;" horiz-adv-x="686" d="M133 174v152l285 243l-285 248v150l422 -361v-71z" />
<glyph unicode="&#x205f;" horiz-adv-x="451" />
<glyph unicode="&#x20ac;" d="M-25 465l25 108h61q-6 61 -2 134h-84l25 108h72q43 242 184 373q150 139 389 139q154 0 295 -59v-164h-8q-125 88 -289 88q-315 0 -397 -377h631l-23 -108h-623v-134h594l-22 -108h-551q39 -156 133 -248q104 -102 258 -102q170 0 291 82h6v-160q-150 -61 -297 -62 q-229 0 -379 134q-143 127 -190 356h-99z" />
<glyph unicode="&#x2122;" horiz-adv-x="1568" d="M92 1212v91h508v-91h-203v-526h-100v526h-205zM748 686v617h200l144 -351l145 351h195v-617h-101v549h-26l-179 -401h-69l-180 409h-31v-557h-98z" />
<glyph unicode="&#xe000;" horiz-adv-x="972" d="M0 0v973h973v-973h-973z" />
</font>
</defs>
</svg>
